<?xml version="1.0" encoding="UTF-8" standalone="no"?>
<!DOCTYPE svg PUBLIC "-//W3C//DTD SVG 1.0//EN"
	"http://www.w3.org/TR/2001/REC-SVG-20010904/DTD/svg10.dtd">
<svg
	xmlns="http://www.w3.org/2000/svg"
	version="1.0"
	width="600"
	height="600"
	viewBox="0 0 3200 3200">
<path	d="M 1599.9441,1.7053026e-13 L 1352.4564,482.60959 C 1324.3737,535.06125 1274.0579,530.19631 1223.7422,500.90037 L 1044.5677,403.89668 L 1178.1091,1145.1749 C 1206.1919,1280.6022 1116.09,1280.6022 1071.6242,1222.0458 L 758.93009,856.05314 L 708.16474,1041.9129 C 702.31063,1066.3203 676.57094,1091.9557 637.95544,1085.8509 L 242.55022,998.93137 L 346.40592,1393.7004 C 368.63872,1481.541 385.98071,1517.91 323.96105,1541.0775 L 183.02585,1610.3321 L 863.69055,2188.3867 C 890.63155,2210.2435 904.24335,2249.5764 894.65215,2285.1897 L 835.07945,2489.5882 C 1069.4424,2461.3432 1279.5593,2436.062 1513.9169,2407.8524 C 1534.7408,2407.5808 1569.2708,2426.0841 1569.1286,2451.1646 L 1538.076,3200 L 1652.0243,3200 L 1634.0875,2452.7705 C 1633.9452,2427.69 1665.2592,2407.5808 1686.083,2407.8524 C 1920.4407,2436.062 2130.5577,2461.3432 2364.9207,2489.5882 L 2305.3481,2285.1897 C 2295.7569,2249.5764 2309.3686,2210.2435 2336.3097,2188.3867 L 3016.9742,1610.3321 L 2876.0392,1541.0775 C 2814.0194,1517.91 2831.3614,1481.541 2853.5941,1393.7004 L 2957.45,998.93137 L 2562.0446,1085.8509 C 2523.4291,1091.9557 2497.6894,1066.3203 2491.8351,1041.9129 L 2441.0698,856.05314 L 2128.3758,1222.0458 C 2083.91,1280.6022 1993.8079,1280.6022 2021.8908,1145.1749 L 2155.432,403.89668 L 1976.258,500.90037 C 1925.9408,530.19631 1875.6262,535.06125 1847.5435,482.60959"
	fill="black"
	id="maple_leaf"/>
</svg>
