<?xml version="1.0" standalone="no"?>
<!DOCTYPE svg PUBLIC "-//W3C//DTD SVG 20010904//EN"
 "http://www.w3.org/TR/2001/REC-SVG-20010904/DTD/svg10.dtd">
<svg version="1.0" xmlns="http://www.w3.org/2000/svg"
 width="128.000000pt" height="128.000000pt" viewBox="0 0 128.000000 128.000000"
 preserveAspectRatio="xMidYMid meet">
<metadata>
Created by potrace 1.11, written by Peter Selinger 2001-2013
</metadata>
<g transform="translate(0.000000,128.000000) scale(0.100000,-0.100000)"
fill="#000000" stroke="none">
<path d="M772 1173 c-184 -336 -223 -413 -220 -435 3 -22 6 -23 126 -26 l122
-3 0 -59 c0 -67 -6 -61 148 -149 39 -23 72 -43 72 -45 0 -2 -49 -31 -110 -65
l-110 -62 0 -72 c0 -87 14 -141 46 -185 41 -53 75 -65 207 -70 l117 -4 0 41 0
41 -99 0 c-54 0 -112 5 -129 11 -39 13 -60 56 -64 133 l-3 59 122 71 c67 39
128 76 134 82 23 25 -5 51 -126 119 l-125 70 0 78 0 77 -115 0 c-63 0 -115 3
-115 6 0 3 59 113 130 244 72 132 130 242 130 245 0 3 -18 5 -39 5 l-40 0 -59
-107z"/>
<path d="M1015 1175 c-25 -24 -32 -65 -19 -100 9 -23 62 -48 90 -41 92 23 78
166 -16 166 -19 0 -40 -9 -55 -25z"/>
<path d="M136 709 c-30 -123 -38 -234 -26 -344 9 -89 32 -200 43 -211 7 -7 67
18 67 28 0 6 -8 38 -17 72 -25 91 -23 326 4 424 l20 73 -28 15 c-15 8 -32 14
-37 14 -5 0 -16 -32 -26 -71z"/>
<path d="M291 658 c-29 -115 -23 -376 9 -427 7 -12 13 -12 40 -1 29 12 31 16
26 44 -28 133 -26 303 4 381 8 22 6 27 -20 40 -16 8 -33 15 -38 15 -5 0 -14
-24 -21 -52z"/>
<path d="M441 577 c-6 -35 -11 -88 -11 -117 0 -55 18 -180 27 -180 2 0 17 7
32 15 l29 14 -5 108 c-3 59 0 127 5 151 10 41 9 43 -19 57 -15 8 -32 15 -37
15 -6 0 -15 -28 -21 -63z"/>
</g>
</svg>
